# xmcd
#
# Track frame offsets:
# 150
# 16525
# 37195
# 59217
# 79112
# 97420
# 112937
# 129937
# 148355
# 167232
# 189010
# 205450
#
# Disc length: 3004 seconds
#
#
# Revision: 2
# Processed by: cddbd v1.5.1PL2 Copyright (c) Steve Scherf et al.
# Submitted via: FreeRIP 2.945 
#
DISCID=ac0bba0c
DTITLE=Maranatha - Alone With GOD (Here I Am)
DYEAR=1997
DGENRE=Inspirational Worhsip
TTITLE0=Come As You Are
TTITLE1=Sweet Hour Of Prayer
TTITLE2=With My Whole Heart
TTITLE3=I Will Delight (In The Way of the LORD)
TTITLE4=What A Friend we Have In Jesus
TTITLE5=Jesus, I Belive
TTITLE6=Your Throne Oh GOD
TTITLE7=It Is Well With My Soul
TTITLE8=Joy Will Come
TTITLE9=Here I  Am
TTITLE10=You Are My Hiding Place
TTITLE11=I Will Follow
EXTD=
EXTT0=
EXTT1=
EXTT2=
EXTT3=
EXTT4=
EXTT5=
EXTT6=
EXTT7=
EXTT8=
EXTT9=
EXTT10=
EXTT11=
PLAYORDER=
